<svg width="511" height="511" viewBox="0 0 511 511" fill="none" xmlns="http://www.w3.org/2000/svg">
<path d="M498.155 88.4198L498.157 88.4242C504.424 104.543 508.806 123.155 510.001 150.257C511.197 177.498 511.299 186.172 511.299 255.55C511.299 324.925 510.998 333.601 509.802 360.842C508.607 387.945 504.222 406.459 497.957 422.676C484.731 456.883 457.683 483.931 423.473 497.157L423.472 497.158C407.357 503.425 388.745 507.807 361.643 509.002C334.401 510.202 325.725 510.498 256.35 510.498C186.975 510.498 178.296 510.202 151.058 509.002C123.952 507.807 105.441 503.426 89.2234 497.157L89.2193 497.156C72.3175 490.794 56.9061 480.75 44.1784 467.825L44.1729 467.819C31.2466 455.091 21.2069 439.781 14.7442 422.68L14.7424 422.676C8.4745 406.557 4.08948 387.945 2.89453 360.842C1.69789 333.601 1.39764 324.925 1.39764 255.55C1.39764 186.175 1.6979 177.5 2.99583 150.158L2.9959 150.156C4.19084 123.054 8.57185 104.543 14.8403 88.3258L14.8418 88.3218C21.2072 71.4198 31.247 56.0084 44.1729 43.2807L44.1729 43.2807L44.1797 43.2738C56.9061 30.2483 72.2154 20.3059 89.3213 13.8426L89.3257 13.8409C105.44 7.57686 124.052 3.19184 151.155 1.99688C178.397 0.800247 187.072 0.5 256.448 0.5C325.823 0.5 334.497 0.800255 361.84 2.09819L361.841 2.09826C388.944 3.2932 407.458 7.67421 423.672 13.9426L423.676 13.9442C440.578 20.3057 455.989 30.3493 468.717 43.2753L468.724 43.282C481.749 56.0085 491.692 71.3178 498.155 88.4198ZM407.363 455.267C429.755 446.629 447.527 428.858 456.164 406.466C459.677 397.432 463.881 383.902 464.983 358.89C466.181 331.927 466.481 323.932 466.481 255.749C466.481 187.565 466.181 179.473 464.983 152.51C463.881 127.6 459.679 113.973 456.166 104.939C452.047 93.7906 445.519 83.7484 436.985 75.4126C428.748 66.8752 418.603 60.3482 407.461 56.2333C398.427 52.7207 384.898 48.5181 359.889 47.4161C333.023 46.2185 324.931 45.9182 256.646 45.9182C188.467 45.9182 180.371 46.2185 153.408 47.4161C128.501 48.518 114.87 52.7206 105.836 56.2334C94.6883 60.3488 84.6466 66.8756 76.315 75.4093C67.6754 83.6507 61.1484 93.7922 57.0297 104.938C53.5169 113.972 49.3143 127.501 48.2162 152.51C47.0148 179.372 46.7184 187.566 46.7184 255.749C46.7184 323.932 47.0148 332.028 48.2163 358.991C49.3143 383.898 53.5167 397.529 57.0295 406.563C61.149 417.707 67.6761 427.749 76.2104 436.085C84.4472 444.622 94.592 451.149 105.735 455.268C114.768 458.781 128.298 462.983 153.306 464.081C180.172 465.283 188.366 465.579 256.549 465.579C324.732 465.579 332.824 465.283 359.788 464.081C384.702 462.983 398.33 458.78 407.363 455.267ZM125.679 255.55C125.679 183.352 184.254 124.781 256.448 124.781C328.645 124.781 387.216 183.352 387.216 255.55C387.216 327.748 328.645 386.319 256.448 386.319C184.254 386.319 125.679 327.748 125.679 255.55ZM170.797 255.55C170.797 302.845 209.157 341.201 256.448 341.201C303.742 341.201 342.098 302.845 342.098 255.55C342.098 208.255 303.742 169.899 256.448 169.899C209.157 169.899 170.797 208.255 170.797 255.55ZM423.056 119.091C423.056 135.738 409.558 149.236 392.906 149.236C376.259 149.236 362.761 135.738 362.761 119.091C362.761 102.44 376.259 88.9458 392.906 88.9458C409.558 88.9458 423.056 102.44 423.056 119.091Z" fill="black" stroke="#2C2C2C"/>
</svg>
